<?xml version="1.0" encoding="UTF-8" standalone="no"?>
<!-- Created with Inkscape (http://www.inkscape.org/) -->

<svg
   xmlns:dc="http://purl.org/dc/elements/1.1/"
   xmlns:cc="http://creativecommons.org/ns#"
   xmlns:rdf="http://www.w3.org/1999/02/22-rdf-syntax-ns#"
   xmlns:svg="http://www.w3.org/2000/svg"
   xmlns="http://www.w3.org/2000/svg"
   xmlns:sodipodi="http://sodipodi.sourceforge.net/DTD/sodipodi-0.dtd"
   xmlns:inkscape="http://www.inkscape.org/namespaces/inkscape"
   id="svg2"
   version="1.1"
   inkscape:version="0.91 r13725"
   xml:space="preserve"
   width="445.5614"
   height="268.10751"
   viewBox="0 0 445.5614 268.10751"
   sodipodi:docname="Uni_Aug_Logo_Basis_pos_A.svg"><metadata
     id="metadata8"><rdf:RDF><cc:Work
         rdf:about=""><dc:format>image/svg+xml</dc:format><dc:type
           rdf:resource="http://purl.org/dc/dcmitype/StillImage" /><dc:title></dc:title></cc:Work></rdf:RDF></metadata><defs
     id="defs6"><clipPath
       clipPathUnits="userSpaceOnUse"
       id="clipPath18"><path
         d="m 0,0 3713.98,0 0,4960 L 0,4960 0,0 Z"
         id="path20"
         inkscape:connector-curvature="0" /></clipPath></defs><sodipodi:namedview
     pagecolor="#ffffff"
     bordercolor="#666666"
     borderopacity="1"
     objecttolerance="10"
     gridtolerance="10"
     guidetolerance="10"
     inkscape:pageopacity="0"
     inkscape:pageshadow="2"
     inkscape:window-width="1185"
     inkscape:window-height="867"
     id="namedview4"
     showgrid="false"
     inkscape:zoom="0.38060679"
     inkscape:cx="245.63919"
     inkscape:cy="-41.079725"
     inkscape:window-x="592"
     inkscape:window-y="187"
     inkscape:window-maximized="0"
     inkscape:current-layer="g10"
     fit-margin-top="0"
     fit-margin-left="0"
     fit-margin-right="0"
     fit-margin-bottom="0" /><g
     id="g10"
     inkscape:groupmode="layer"
     inkscape:label="ink_ext_XXXXXX"
     transform="matrix(1.25,0,0,-1.25,-1.766975,619.21847)"><path
       inkscape:connector-curvature="0"
       id="path5647-4-4"
       style="fill:#000000;fill-opacity:1;fill-rule:nonzero;stroke:none"
       d="m 203.85469,424.50878 0,-141.71 -33.14,0 -52.428,85.029 -0.903,1.501 0,-33.995 c 0,-13.487 -1.854,-28.151 -9.44,-37.084 -11.799997,-14.497 -33.543799,-17.361 -48.882099,-17.361 -57.480041,0 -57.648011,35.734 -57.648011,55.626 l 0,87.994 34.21801,0 0,-72.553 c 0,-25.052 0.5062,-31.792 3.876901,-36.849 4.55,-6.744 12.4746,-9.946 20.7332,-9.946 21.405498,0 24.272298,17.363 24.272298,29.5 l 0,20.505 -0.0016,69.343 33.127901,0 53.629,-88.849 0,88.849 32.585,0 z m 66.043,-113.204 0,57.599 25.73,-41.707 -25.73,-15.892 z m 87.965,-28.506 -87.964,141.71 -0.002,-0.427 0,0.427 -33.208,0 0,-141.71 33.209,0 0,0.019 0.012,-0.019 38.463,23.756 14.666,-23.756 34.824,0 z m -112.007,187.822 c 0,13.671 -11.084,24.754 -24.755,24.754 -13.671,0 -24.759,-11.083 -24.759,-24.754 0,-13.677 11.088,-24.76 24.759,-24.76 13.671,0 24.755,11.083 24.755,24.76" /></g></svg>